<?xml version="1.0" encoding="utf-8"?>
<!-- Generator: Adobe Illustrator 24.0.1, SVG Export Plug-In . SVG Version: 6.00 Build 0)  -->
<svg version="1.1" id="Capa_1" xmlns="http://www.w3.org/2000/svg" xmlns:xlink="http://www.w3.org/1999/xlink" x="0px" y="0px"
	 viewBox="0 0 168.5 59.3" style="enable-background:new 0 0 168.5 59.3;" xml:space="preserve">
<style type="text/css">
	.st0{fill:#B7B5B4;}
	.st1{fill:#CDCECB;}
	.st2{clip-path:url(#SVGID_2_);fill:url(#SVGID_3_);}
	.st3{clip-path:url(#SVGID_5_);fill:url(#SVGID_6_);}
	.st4{clip-path:url(#SVGID_8_);fill:url(#SVGID_9_);}
	.st5{clip-path:url(#SVGID_11_);fill:url(#SVGID_12_);}
	.st6{clip-path:url(#SVGID_14_);fill:url(#SVGID_15_);}
	.st7{clip-path:url(#SVGID_17_);fill:url(#SVGID_18_);}
	.st8{clip-path:url(#SVGID_20_);fill:url(#SVGID_21_);}
	.st9{filter:url(#Adobe_OpacityMaskFilter);}
	.st10{enable-background:new    ;}
	.st11{filter:url(#Adobe_OpacityMaskFilter_1_);}
	.st12{clip-path:url(#SVGID_24_);mask:url(#SVGID_22_);fill:url(#SVGID_25_);}
	.st13{opacity:0.35;}
	.st14{clip-path:url(#SVGID_27_);}
	.st15{clip-path:url(#SVGID_29_);fill:url(#SVGID_30_);}
	.st16{fill:#FFFFFF;}
	.st17{fill:#F4F3F1;}
</style>
<g>
	<g>
		<polyline class="st0" points="40.6,8.6 40.6,8.2 37.4,7.3 37.4,7.8 		"/>
		<path class="st0" d="M40.6,8.6l-3.2-0.8L40.6,8.6z"/>
		<polygon class="st0" points="37.4,7.3 35.6,5.4 35.7,6 37.4,7.8 		"/>
		<polygon class="st0" points="37.7,5.2 38,5.3 38.1,3.3 37.8,3.1 		"/>
		<polygon class="st0" points="37.9,2.7 37.7,3 39.1,4.4 39.3,3.9 		"/>
		<polygon class="st0" points="35.7,5.3 35.7,5.7 37.9,5.5 37.9,5 		"/>
		<polygon class="st0" points="40.3,7.9 37.9,5 37.6,5.3 40.3,8.3 		"/>
		<polygon class="st0" points="37.9,2.7 35.6,5.4 35.7,6 38.1,3 		"/>
		<polygon class="st0" points="39.5,4.4 37.4,7.9 37.4,7.3 39.3,3.9 		"/>
		<polygon class="st0" points="42.2,8.5 41.8,5.6 41.3,5.6 41.3,6.1 39.8,5.8 40.6,8.3 		"/>
		<polygon class="st0" points="39.4,4.4 39.8,5.8 41.5,6.2 		"/>
		<polygon class="st1" points="27.8,5.1 26.8,10.5 27,10.5 28.2,5 		"/>
		<polygon class="st1" points="29.5,5.4 28.3,10.8 28.5,10.8 30.1,5.5 		"/>
		<g>
			<defs>
				<path id="SVGID_1_" d="M50.9,10.5c-1.2-0.1-0.8,1.5-0.8,1.5v0.7l-3.9-0.1l-0.5,1.1l-5.4,21l0.9,0.1L47,14.4
					c0.4,0.3,1.1,0.2,1.1,0.2l2.1-0.1l1.4,2.2l5.1,0l-0.4-0.3l-4.4-0.3l0.3-1.3l3.4-0.1l-0.3-0.3l-3.2-0.2l0.4-2.3l-1.2-2.5l-0.4,0
					L50.9,10.5z"/>
			</defs>
			<clipPath id="SVGID_2_">
				<use xlink:href="#SVGID_1_"  style="overflow:visible;"/>
			</clipPath>
			
				<linearGradient id="SVGID_3_" gradientUnits="userSpaceOnUse" x1="2.9814" y1="56.2773" x2="3.9814" y2="56.2773" gradientTransform="matrix(11.211 2.7595 -2.7595 11.211 165.5559 -618.1415)">
				<stop  offset="0" style="stop-color:#5A5658"/>
				<stop  offset="6.060610e-03" style="stop-color:#5A5658"/>
				<stop  offset="0.1065" style="stop-color:#6C696A"/>
				<stop  offset="0.3088" style="stop-color:#9B9999"/>
				<stop  offset="0.5044" style="stop-color:#CDCECB"/>
				<stop  offset="1" style="stop-color:#FFFFFF"/>
			</linearGradient>
			<polygon class="st2" points="34.3,33.5 55.7,38.8 62.6,10.9 41.2,5.6 			"/>
		</g>
		<polygon class="st1" points="50.2,14.5 47.8,14.6 46.7,14.4 41.2,35 42.2,33.6 47.2,15 48.9,15.1 50.2,15 50.7,15.3 		"/>
		<polygon class="st0" points="42.2,5.7 43.5,14.2 43.2,14.2 41.8,5.6 		"/>
		<polygon class="st0" points="41.1,7.5 42.1,14.2 41.9,14.2 40.7,7.6 		"/>
		<g>
			<defs>
				<path id="SVGID_4_" d="M42.4,13.8L41.8,14l-0.1,0c0,0,0.2,2.5,0.5,3c0,0,0.2,0.5,0.7,0.6c0.2,0.1,0.6,0.6,0.4,0.9
					c-0.3,0.3-0.5-0.2-0.7-0.6c-0.2-0.4-0.3,0.3-0.3,0.5c0.1,0.3,0.4,0.6,0.7,0.7c0.4,0.1,0.8-0.5,0.8-0.9c0-0.3-0.2-0.6-0.5-0.8
					c0,0,0.8-0.1,0.6-1.1l-0.2-2.5c0,0,0.1-0.3-0.4,0l-0.4,0c0,0-0.2-0.2-0.4-0.2C42.5,13.5,42.5,13.6,42.4,13.8"/>
			</defs>
			<clipPath id="SVGID_5_">
				<use xlink:href="#SVGID_4_"  style="overflow:visible;"/>
			</clipPath>
			
				<linearGradient id="SVGID_6_" gradientUnits="userSpaceOnUse" x1="2.3597" y1="56.4369" x2="3.3597" y2="56.4369" gradientTransform="matrix(-2.1497 0.1639 0.1639 2.1497 39.7957 -105.4769)">
				<stop  offset="0" style="stop-color:#5A5658"/>
				<stop  offset="6.060610e-03" style="stop-color:#5A5658"/>
				<stop  offset="0.1065" style="stop-color:#6C696A"/>
				<stop  offset="0.3088" style="stop-color:#9B9999"/>
				<stop  offset="0.5044" style="stop-color:#CDCECB"/>
				<stop  offset="1" style="stop-color:#FFFFFF"/>
			</linearGradient>
			<polygon class="st3" points="44.6,19.2 41.7,19.4 41.2,13.5 44.1,13.3 			"/>
		</g>
		<polygon class="st0" points="40.8,8 38,10.1 37.9,9.7 40.8,7.6 		"/>
		<polygon class="st0" points="40.7,13.5 37.9,10.1 38.1,9.8 40.8,13.2 		"/>
		<polygon class="st0" points="40.7,13.8 37.8,15.8 37.8,15.4 40.7,13.4 		"/>
		<polygon class="st0" points="40.6,19.2 37.8,15.9 38,15.6 40.8,19 		"/>
		<polygon class="st0" points="40.5,19.1 37.5,21.1 37.6,21.5 40.6,19.5 40.6,19.1 		"/>
		<polygon class="st0" points="40.5,24.2 37.5,21.2 37.5,21.6 40.5,24.5 		"/>
		<polygon class="st0" points="40.4,24.1 37.2,26.7 37.3,27.2 40.5,24.5 		"/>
		<polygon class="st0" points="40,28.6 37.4,31.3 37.5,31.7 39.8,29.3 		"/>
		<g>
			<path class="st0" d="M40.9,7.7l-0.2,14.6l-0.2,4.9L38.7,35l-0.3,0.1l1.8-8l0.2-5l0.2-14.5C40.7,7.7,40.8,7.4,40.9,7.7"/>
			<polygon class="st0" points="37.9,7.4 36,9.1 36,8.7 37.9,7 			"/>
			<polygon class="st0" points="37.7,10.1 36,9.2 36.1,8.9 37.8,9.8 			"/>
			<polygon class="st0" points="37.8,10.3 35.9,14.7 35.8,14.3 37.8,9.9 			"/>
			<polygon class="st0" points="37.6,15.8 35.8,14.7 36,14.4 37.7,15.6 			"/>
			<polygon class="st0" points="37.6,15.8 35.6,18.9 35.7,19.3 37.6,16.2 			"/>
			<polygon class="st0" points="37.5,21 35.6,18.6 35.6,19.1 37.4,21.4 			"/>
			<polygon class="st0" points="37.5,21.1 35.5,24.2 35.5,24.9 37.5,21.5 			"/>
			<polygon class="st0" points="37.2,27 35.7,29.6 35.8,30.3 37.3,27.6 			"/>
			<polygon class="st0" points="38.9,33.9 37.3,31.3 37.4,31.9 38.8,34.3 			"/>
			<polygon class="st0" points="40,28.6 37.4,26.9 37.5,27.6 39.9,28.9 			"/>
			<polygon class="st0" points="37.3,31.5 36.4,33.8 36.6,34.4 37.4,32.1 			"/>
			<polygon class="st0" points="37.3,26.7 35.5,24.5 35.5,25 37.3,27.2 			"/>
			<polygon class="st0" points="37.4,31.3 35.8,29.9 35.8,30.4 37.4,31.7 			"/>
		</g>
		<g>
			<defs>
				<path id="SVGID_7_" d="M37.8,7.1l-0.6,20.6l0.2,7.3l0.1-0.1l-0.1-7.2l0.7-20.9C38,6.8,38,6.7,37.9,6.7
					C37.8,6.7,37.8,7.1,37.8,7.1"/>
			</defs>
			<clipPath id="SVGID_8_">
				<use xlink:href="#SVGID_7_"  style="overflow:visible;"/>
			</clipPath>
			
				<linearGradient id="SVGID_9_" gradientUnits="userSpaceOnUse" x1="1.5611" y1="56.5663" x2="2.5611" y2="56.5663" gradientTransform="matrix(-0.8679 -2.068900e-03 -2.068900e-03 0.8679 39.5367 -28.2161)">
				<stop  offset="0" style="stop-color:#5A5658"/>
				<stop  offset="6.060610e-03" style="stop-color:#5A5658"/>
				<stop  offset="0.1065" style="stop-color:#6C696A"/>
				<stop  offset="0.3088" style="stop-color:#9B9999"/>
				<stop  offset="0.5044" style="stop-color:#CDCECB"/>
				<stop  offset="1" style="stop-color:#FFFFFF"/>
			</linearGradient>
			<polygon class="st4" points="38.1,35 37.1,35 37.2,6.7 38.2,6.7 			"/>
		</g>
		<g>
			<path class="st0" d="M36.2,4.8l-0.7,22.9l1.1,7.1l-0.2,0l-1.2-7.2l0.7-22.6C35.9,5.1,36,4.5,36.2,4.8"/>
		</g>
		<g>
			<defs>
				<path id="SVGID_10_" d="M26.5,10.2L26,12.7c-0.3,1.1,0.6,1.2,0.6,1.2c-0.3,0.1-0.5,0.5-0.6,0.8c-0.1,0.5,0.3,1.1,0.8,1.1
					c0.4,0,0.7-0.3,0.9-0.6c0.1-0.2,0.1-0.8-0.2-0.5c-0.2,0.1-0.4,0.6-0.7,0.3c-0.2-0.3,0.1-0.6,0.4-0.7c0.6-0.1,0.9-0.6,0.9-0.6
					c0.4-0.5,0.8-3,0.8-3l-0.2,0L28,10.4c-0.1-0.6-0.7-0.1-0.7-0.1l-0.5-0.1c-0.2-0.1-0.3-0.2-0.3-0.2C26.5,10,26.5,10.2,26.5,10.2"
					/>
			</defs>
			<clipPath id="SVGID_11_">
				<use xlink:href="#SVGID_10_"  style="overflow:visible;"/>
			</clipPath>
			
				<linearGradient id="SVGID_12_" gradientUnits="userSpaceOnUse" x1="3.3592" y1="56.2964" x2="4.3592" y2="56.2964" gradientTransform="matrix(2.4025 0.4425 -0.4425 2.4025 42.8853 -124.177)">
				<stop  offset="0" style="stop-color:#5A5658"/>
				<stop  offset="6.060610e-03" style="stop-color:#5A5658"/>
				<stop  offset="0.1065" style="stop-color:#6C696A"/>
				<stop  offset="0.3088" style="stop-color:#9B9999"/>
				<stop  offset="0.5044" style="stop-color:#CDCECB"/>
				<stop  offset="1" style="stop-color:#FFFFFF"/>
			</linearGradient>
			<polygon class="st5" points="24.7,15.6 28.8,16.3 29.9,10 25.8,9.3 			"/>
		</g>
		<g>
			<defs>
				<path id="SVGID_13_" d="M27.7,5.1l0.2,0.7l0.2,0c0,0,0.2,0.3,0.5,0.1L28.7,6L29,6.7l0.3,0.1l0.8,3.6l-0.3,0.1l0.1,0.8l0.3-0.1
					L31,15l-0.4,0.2l0.2,0.8l0.4-0.1l0.4,2l-0.3,0.2l0.1,0.3l0.4-0.1l0.6,3.1l-0.2,1l0.5,2.1l0,0.6l0.4,0.1l2,9.6l1.9,0.3l-3.8-17.9
					L31,5.3l0.2-0.3l-0.3-0.5l-0.3,0.4l-1.6-0.2l-0.3-0.3L27.7,5.1z"/>
			</defs>
			<clipPath id="SVGID_14_">
				<use xlink:href="#SVGID_13_"  style="overflow:visible;"/>
			</clipPath>
			
				<linearGradient id="SVGID_15_" gradientUnits="userSpaceOnUse" x1="3.0045" y1="56.3073" x2="4.0045" y2="56.3073" gradientTransform="matrix(9.1959 0 0 9.1959 0.1155 -498.089)">
				<stop  offset="0" style="stop-color:#5A5658"/>
				<stop  offset="6.060610e-03" style="stop-color:#5A5658"/>
				<stop  offset="0.1065" style="stop-color:#6C696A"/>
				<stop  offset="0.3088" style="stop-color:#9B9999"/>
				<stop  offset="0.5044" style="stop-color:#CDCECB"/>
				<stop  offset="1" style="stop-color:#FFFFFF"/>
			</linearGradient>
			<rect x="27.7" y="4.3" class="st6" width="9.2" height="30.9"/>
		</g>
		<g>
			<polygon class="st1" points="31.9,10.7 35.3,23.2 35.4,22.1 31.4,8.2 			"/>
		</g>
		<g>
			<defs>
				<path id="SVGID_16_" d="M4,36.8c0,10.9,8.8,19.7,19.7,19.7c10.9,0,19.7-8.8,19.7-19.7c0-10.9-8.8-19.7-19.7-19.7
					C12.9,17.1,4,25.9,4,36.8"/>
			</defs>
			<clipPath id="SVGID_17_">
				<use xlink:href="#SVGID_16_"  style="overflow:visible;"/>
			</clipPath>
			
				<linearGradient id="SVGID_18_" gradientUnits="userSpaceOnUse" x1="2.905" y1="56.264" x2="3.905" y2="56.264" gradientTransform="matrix(27.8926 27.8926 -27.8926 27.8926 1498.1171 -1627.5131)">
				<stop  offset="0" style="stop-color:#514B4E"/>
				<stop  offset="6.060610e-03" style="stop-color:#514B4E"/>
				<stop  offset="5.903528e-02" style="stop-color:#767172"/>
				<stop  offset="7.878790e-02" style="stop-color:#858181"/>
				<stop  offset="0.1738" style="stop-color:#A2A09F"/>
				<stop  offset="0.3394" style="stop-color:#DCDEDB"/>
				<stop  offset="0.5091" style="stop-color:#E4E3E1"/>
				<stop  offset="0.8121" style="stop-color:#BEBEBC"/>
				<stop  offset="0.8925" style="stop-color:#A4A2A0"/>
				<stop  offset="0.9879" style="stop-color:#888483"/>
				<stop  offset="1" style="stop-color:#888483"/>
			</linearGradient>
			<polygon class="st7" points="-15.7,36.8 23.7,76.3 63.2,36.8 23.7,-2.6 			"/>
		</g>
		<g>
			<defs>
				<path id="SVGID_19_" d="M7.3,36.8c0,9.1,7.4,16.4,16.4,16.4c9.1,0,16.4-7.4,16.4-16.4c0-9.1-7.4-16.4-16.4-16.4
					C14.7,20.4,7.3,27.7,7.3,36.8"/>
			</defs>
			<clipPath id="SVGID_20_">
				<use xlink:href="#SVGID_19_"  style="overflow:visible;"/>
			</clipPath>
			
				<radialGradient id="SVGID_21_" cx="2.9497" cy="56.2952" r="1" gradientTransform="matrix(16.433 0 0 16.433 -24.7264 -888.2899)" gradientUnits="userSpaceOnUse">
				<stop  offset="0" style="stop-color:#E2241D"/>
				<stop  offset="0.4182" style="stop-color:#E2241D"/>
				<stop  offset="0.5224" style="stop-color:#CF211C"/>
				<stop  offset="0.8121" style="stop-color:#9D1A18"/>
				<stop  offset="0.9939" style="stop-color:#CC151B"/>
				<stop  offset="1" style="stop-color:#CC151B"/>
			</radialGradient>
			<rect x="7.3" y="20.4" class="st8" width="32.9" height="32.9"/>
		</g>
		<g>
			<defs>
				<filter id="Adobe_OpacityMaskFilter" filterUnits="userSpaceOnUse" x="11.4" y="22.4" width="24.6" height="17.1">
					<feFlood  style="flood-color:white;flood-opacity:1" result="back"/>
					<feBlend  in="SourceGraphic" in2="back" mode="normal"/>
				</filter>
			</defs>
			<mask maskUnits="userSpaceOnUse" x="11.4" y="22.4" width="24.6" height="17.1" id="SVGID_22_">
				<g class="st9">
					<g class="st10">
						<g class="st10">
							<g>
								<defs>
									<path id="SVGID_23_" d="M11.4,32.8c0,5.7,5.5,6.8,12.3,6.8c6.8,0,12.3-1.1,12.3-6.8s-5.5-10.4-12.3-10.4
										C17,22.4,11.4,27.1,11.4,32.8"/>
								</defs>
								<clipPath id="SVGID_24_">
									<use xlink:href="#SVGID_23_"  style="overflow:visible;"/>
								</clipPath>
								<defs>
									<filter id="Adobe_OpacityMaskFilter_1_" filterUnits="userSpaceOnUse" x="11.4" y="22.4" width="24.6" height="17.1">
										<feFlood  style="flood-color:white;flood-opacity:1" result="back"/>
										<feBlend  in="SourceGraphic" in2="back" mode="normal"/>
									</filter>
								</defs>
								<mask maskUnits="userSpaceOnUse" x="11.4" y="22.4" width="24.6" height="17.1" id="SVGID_22_">
									<g class="st11">
										<g class="st10">
										</g>
									</g>
								</mask>
								
									<linearGradient id="SVGID_25_" gradientUnits="userSpaceOnUse" x1="2.8947" y1="56.2133" x2="3.8947" y2="56.2133" gradientTransform="matrix(0 17.1477 -17.1477 0 987.6716 -27.2029)">
									<stop  offset="0" style="stop-color:#FFFFFF"/>
									<stop  offset="0.1267" style="stop-color:#D6D6D6"/>
									<stop  offset="0.3676" style="stop-color:#8E8E8E"/>
									<stop  offset="0.5841" style="stop-color:#555555"/>
									<stop  offset="0.7682" style="stop-color:#2C2C2C"/>
									<stop  offset="0.9128" style="stop-color:#121212"/>
									<stop  offset="1" style="stop-color:#090909"/>
								</linearGradient>
								<rect x="11.4" y="22.4" class="st12" width="24.6" height="17.1"/>
							</g>
						</g>
					</g>
				</g>
			</mask>
			<g class="st13">
				<g>
					<defs>
						<rect id="SVGID_26_" x="11.4" y="22.4" width="24.6" height="17.1"/>
					</defs>
					<clipPath id="SVGID_27_">
						<use xlink:href="#SVGID_26_"  style="overflow:visible;"/>
					</clipPath>
					<g class="st14">
						<defs>
							<path id="SVGID_28_" d="M11.4,32.8c0,5.7,5.5,6.8,12.3,6.8c6.8,0,12.3-1.1,12.3-6.8c0-5.7-5.5-10.4-12.3-10.4
								C17,22.4,11.4,27.1,11.4,32.8"/>
						</defs>
						<clipPath id="SVGID_29_">
							<use xlink:href="#SVGID_28_"  style="overflow:visible;"/>
						</clipPath>
						
							<linearGradient id="SVGID_30_" gradientUnits="userSpaceOnUse" x1="2.8946" y1="56.2133" x2="3.8946" y2="56.2133" gradientTransform="matrix(0 17.1477 -17.1477 0 987.6716 -27.2034)">
							<stop  offset="0" style="stop-color:#FFFFFF"/>
							<stop  offset="1" style="stop-color:#FFFFFF"/>
						</linearGradient>
						<rect x="11.4" y="22.4" class="st15" width="24.6" height="17.1"/>
					</g>
				</g>
			</g>
			<path class="st16" d="M27.6,27.7c0,0.2,0.1,0.5,0.1,1c0.1,0.5,0.1,0.9,0.1,1.1c0,0.1,0,0.2-0.1,0.3c-0.3,0-0.5,0-0.7-0.1
				c-0.5-0.7-0.8-1.1-1-1.3c-0.3-0.3-0.8-0.6-1.3-0.9c-0.4-0.2-0.9-0.3-1.4-0.3c-1,0-1.9,0.4-2.6,1.3c-0.8,0.9-1.1,2.2-1.1,4
				c0,0.8,0.1,1.6,0.4,2.4c0.3,0.8,0.7,1.4,1.3,1.8c0.6,0.4,1.3,0.7,2.1,0.7c0.4,0,0.8,0,1.2-0.2c0.2,0,0.4-0.1,0.5-0.3
				c0.1-0.1,0.2-0.2,0.2-0.4c0-0.3,0.1-0.8,0.1-1.5c0-0.6,0-1,0-1.3c0-0.1-0.1-0.1-0.1-0.2s-0.2-0.1-0.4-0.1l-0.8-0.2
				c-0.2,0-0.3-0.1-0.3-0.2c0-0.1,0-0.1,0-0.2c0-0.1,0-0.2,0.1-0.4c0.1,0,0.2-0.1,0.2-0.1c0.7,0,1.2,0,1.7,0.1c0.2,0,0.4,0,0.5,0
				l1.4,0l0.6,0c0.1,0,0.3,0,0.6,0c0,0.2,0,0.3,0,0.4c0,0.1,0,0.1-0.1,0.2c-0.1,0.1-0.3,0.1-0.5,0.2c-0.2,0.1-0.4,0.2-0.4,0.2
				c0,0-0.1,0.1-0.1,0.2c0,0.1,0,0.5,0,1.1c0,0.7,0,1.1,0,1.3c0,0.4,0,0.7,0,0.8c0,0.2,0,0.4-0.1,0.4c-0.2,0.2-0.7,0.4-1.6,0.6
				c-0.9,0.2-1.9,0.3-3,0.3c-0.8,0-1.5-0.1-2.1-0.2c-0.6-0.1-1.1-0.3-1.5-0.6c-0.6-0.3-1-0.7-1.4-1.2c-0.4-0.5-0.7-1-0.9-1.6
				c-0.3-0.8-0.4-1.6-0.4-2.4c0-0.9,0.2-1.8,0.6-2.7c0.3-0.7,0.7-1.2,1.3-1.8c0.5-0.5,1.2-0.9,2-1.3c0.8-0.3,1.7-0.5,2.7-0.5
				c0.1,0,0.3,0,0.6,0c0.7,0,1.4,0.1,2.1,0.3C26.6,27.3,27.2,27.5,27.6,27.7"/>
			<path class="st16" d="M18.9,33.4c0.1,0.2,0.1,0.5,0.2,0.9c0.1,0.6,0.1,1.1,0.1,1.4c0,0.1,0,0.2,0,0.4l-0.1,0l-0.6,0l-0.1,0
				c-0.3-0.8-0.5-1.3-0.8-1.6c-0.5-0.5-1-0.7-1.6-0.7c-0.6,0-1.1,0.2-1.4,0.5c-0.3,0.3-0.5,0.7-0.5,1.1c0,0.4,0.2,0.8,0.5,1.1
				c0.3,0.4,1.1,0.7,2.1,1c0.4,0.1,0.8,0.3,1.3,0.5c0.5,0.2,0.9,0.5,1.2,0.8c0.4,0.4,0.6,0.7,0.7,1.1c0.1,0.3,0.2,0.8,0.2,1.3
				c0,0.6-0.1,1.1-0.3,1.7c-0.1,0.3-0.3,0.6-0.5,0.8c-0.2,0.2-0.5,0.4-0.8,0.6c-0.4,0.2-0.8,0.4-1.2,0.5c-0.4,0.1-0.9,0.2-1.6,0.2
				c-0.4,0-0.9-0.1-1.5-0.2L13,44.4c-0.3-0.1-0.5-0.2-0.6-0.2c0,0-0.1-0.1-0.1-0.2V44c0-0.1,0-0.5,0-1.2c0-0.4,0-0.7,0-0.8v-0.3
				l0.8,0c0.3,0.7,0.5,1.1,0.6,1.2c0.2,0.3,0.4,0.6,0.6,0.7c0.2,0.2,0.5,0.3,0.8,0.5c0.3,0.1,0.6,0.2,1,0.2c0.3,0,0.7-0.1,1.1-0.2
				c0.4-0.1,0.7-0.4,0.9-0.7c0.2-0.3,0.4-0.7,0.4-1c0-0.4-0.2-0.9-0.6-1.2c-0.3-0.2-0.9-0.5-2-0.9s-1.9-0.7-2.3-1
				c-0.4-0.3-0.8-0.7-1-1.2c-0.2-0.5-0.4-1-0.4-1.5c0-1,0.3-1.8,1-2.4c0.7-0.7,1.7-1,3-1c0.3,0,0.7,0.1,1.3,0.2
				C17.9,33.1,18.3,33.2,18.9,33.4"/>
			<path class="st16" d="M24.4,44.8l0-0.7c0.1,0,0.3-0.1,0.5-0.1c0.4-0.1,0.7-0.1,1-0.2c0.1-0.1,0.1-0.3,0.2-0.4
				c0-0.3,0.1-0.8,0.1-1.5l0-3.8c0-0.4,0-1.4-0.1-3.1c0-0.4,0-0.7-0.1-0.8c0,0,0-0.1-0.1-0.1c-0.1-0.1-0.3-0.1-0.5-0.1
				c-0.1,0-0.4,0-0.9-0.1l0-0.6l2,0l2.9-0.1l0.4,0c0.1,0,0.1,0,0.2,0c0.1,0,0.2,0,0.5,0H31c0.5,0,0.9,0.1,1.5,0.2
				c0.2,0,0.4,0.1,0.7,0.3c0.3,0.2,0.6,0.3,0.8,0.6c0.2,0.2,0.4,0.5,0.5,0.8c0.1,0.3,0.2,0.6,0.2,0.9c0,0.4-0.1,0.7-0.2,1
				c-0.2,0.3-0.4,0.6-0.7,0.8c-0.2,0.1-0.6,0.3-1.2,0.6c0.9,0.2,1.6,0.6,2.1,1.1c0.5,0.5,0.7,1.1,0.7,1.8c0,0.4-0.1,0.8-0.2,1.2
				c-0.1,0.3-0.3,0.6-0.5,0.9c-0.3,0.4-0.7,0.6-1.1,0.8c-0.4,0.2-0.9,0.3-1.6,0.5c-0.3,0.1-0.8,0.1-1.5,0.1l-1.5,0
				c-0.6,0-1.4,0-2.3,0.1C26.2,44.8,25.5,44.8,24.4,44.8 M28.6,38c0.2,0,0.5,0.1,0.8,0.1c0.9,0,1.6-0.2,2-0.5
				c0.5-0.3,0.7-0.9,0.7-1.7c0-0.6-0.2-1.1-0.7-1.4c-0.4-0.4-1.1-0.6-2-0.6c-0.3,0-0.6,0-1,0.1c0,0.1,0,0.3,0,0.6c0,0.5,0,1.2,0,2.1
				l0,0.8C28.5,37.6,28.6,37.8,28.6,38 M28.7,43.7c0.4,0.2,0.8,0.2,1.1,0.2c0.7,0,1.2-0.1,1.7-0.3c0.4-0.2,0.7-0.5,0.9-0.9
				c0.2-0.4,0.3-0.8,0.3-1.4c0-0.6-0.1-1-0.3-1.4c-0.3-0.5-0.7-0.8-1.1-1c-0.4-0.2-1.1-0.2-1.9-0.2c-0.4,0-0.6,0-0.8,0.1V40l0,1.3
				l0,2.1C28.6,43.5,28.6,43.6,28.7,43.7"/>
			<polygon class="st0" points="40.5,8.9 39,4.4 39.3,3.9 40.6,8.3 			"/>
			<path class="st17" d="M64.5,22v3.9h-0.3c-0.4-1.1-0.9-1.9-1.6-2.4c-0.7-0.6-1.5-0.8-2.4-0.8c-0.8,0-1.5,0.2-2.1,0.7
				c-0.6,0.5-0.9,1.1-1.2,2c-0.2,0.8-0.3,1.7-0.3,2.6c0,1.1,0.1,2,0.4,2.8c0.3,0.8,0.7,1.4,1.2,1.8c0.6,0.4,1.2,0.6,2,0.6
				c0.3,0,0.5,0,0.8-0.1c0.3-0.1,0.6-0.1,0.9-0.3v-2.3c0-0.4,0-0.7-0.1-0.9c-0.1-0.1-0.2-0.2-0.4-0.4C61.2,29.1,61,29,60.7,29h-0.3
				v-0.3h5.4V29c-0.4,0-0.7,0.1-0.9,0.2c-0.2,0.1-0.3,0.2-0.4,0.4c0,0.1-0.1,0.4-0.1,0.8v2.3c-0.7,0.3-1.5,0.6-2.2,0.7
				c-0.8,0.2-1.6,0.2-2.4,0.2c-1.1,0-1.9-0.1-2.6-0.4c-0.7-0.3-1.3-0.7-1.8-1.1c-0.5-0.5-1-1-1.3-1.6c-0.4-0.8-0.6-1.6-0.6-2.5
				c0-1.7,0.6-3.1,1.8-4.2c1.2-1.2,2.7-1.7,4.4-1.7c0.6,0,1.1,0,1.5,0.1c0.2,0,0.6,0.2,1.2,0.4c0.5,0.2,0.9,0.3,1,0.3
				c0.2,0,0.3-0.1,0.4-0.2c0.1-0.1,0.3-0.3,0.4-0.6H64.5z"/>
			<path class="st17" d="M69.7,25.7v1.7c0.5-0.8,1-1.3,1.3-1.6c0.4-0.3,0.8-0.4,1.1-0.4c0.3,0,0.6,0.1,0.7,0.3
				c0.2,0.2,0.3,0.5,0.3,0.8c0,0.4-0.1,0.7-0.3,0.9c-0.2,0.2-0.4,0.3-0.6,0.3c-0.3,0-0.5-0.1-0.8-0.3c-0.2-0.2-0.3-0.3-0.4-0.3
				c-0.1,0-0.1-0.1-0.2-0.1c-0.2,0-0.3,0.1-0.5,0.2c-0.2,0.2-0.4,0.4-0.5,0.8c-0.2,0.5-0.3,1.1-0.3,1.8v1.8l0,0.5
				c0,0.3,0,0.5,0.1,0.6c0.1,0.1,0.2,0.3,0.3,0.3c0.1,0.1,0.3,0.1,0.7,0.1v0.3h-4.1v-0.3c0.3,0,0.6-0.1,0.7-0.3
				c0.1-0.2,0.2-0.6,0.2-1.2v-4.2c0-0.4,0-0.7-0.1-0.8c-0.1-0.2-0.1-0.3-0.2-0.3c-0.1-0.1-0.3-0.1-0.6-0.2v-0.3H69.7z"/>
			<path class="st17" d="M81.4,25.7v6c0,0.6,0.1,1,0.2,1.1c0.1,0.1,0.3,0.2,0.7,0.3v0.3h-3.1v-1c-0.4,0.4-0.7,0.8-1.1,1
				c-0.4,0.2-0.8,0.3-1.2,0.3c-0.4,0-0.8-0.1-1.2-0.4c-0.3-0.3-0.6-0.6-0.7-0.9c-0.1-0.4-0.2-1-0.2-1.9v-3c0-0.6-0.1-0.9-0.2-1.1
				c-0.1-0.1-0.3-0.2-0.7-0.3v-0.3h3.1V31c0,0.6,0,0.9,0.1,1.1c0.1,0.2,0.1,0.3,0.2,0.4c0.1,0.1,0.2,0.1,0.4,0.1
				c0.2,0,0.4-0.1,0.5-0.2c0.2-0.1,0.5-0.4,0.8-0.9v-4.1c0-0.6-0.1-0.9-0.2-1.1c-0.1-0.1-0.3-0.2-0.7-0.3v-0.3H81.4z M80.6,21.9
				l-2.7,2.8h-0.7l1-2.8H80.6z"/>
			<path class="st17" d="M87.6,32.3c-0.9,0.8-1.8,1.2-2.5,1.2c-0.4,0-0.8-0.1-1.1-0.4c-0.3-0.3-0.4-0.6-0.4-1.1
				c0-0.6,0.3-1.1,0.8-1.6c0.5-0.5,1.6-1.1,3.3-1.9v-0.8c0-0.6,0-0.9-0.1-1.1c-0.1-0.2-0.2-0.3-0.4-0.4c-0.2-0.1-0.4-0.2-0.6-0.2
				c-0.4,0-0.6,0.1-0.9,0.2c-0.1,0.1-0.2,0.2-0.2,0.3c0,0.1,0.1,0.3,0.2,0.4c0.2,0.2,0.3,0.5,0.3,0.7c0,0.3-0.1,0.5-0.3,0.7
				c-0.2,0.2-0.5,0.3-0.8,0.3c-0.3,0-0.6-0.1-0.9-0.3c-0.2-0.2-0.4-0.5-0.4-0.7c0-0.4,0.2-0.8,0.5-1.1c0.3-0.4,0.7-0.6,1.3-0.8
				c0.6-0.2,1.1-0.3,1.7-0.3c0.7,0,1.3,0.2,1.7,0.5c0.4,0.3,0.7,0.6,0.8,1c0.1,0.2,0.1,0.8,0.1,1.6v3c0,0.3,0,0.6,0,0.7
				c0,0.1,0.1,0.2,0.1,0.2c0.1,0,0.1,0.1,0.2,0.1c0.1,0,0.3-0.1,0.4-0.3l0.2,0.2c-0.3,0.4-0.6,0.7-0.8,0.9c-0.3,0.2-0.6,0.3-1,0.3
				c-0.4,0-0.8-0.1-1-0.3C87.8,33,87.6,32.7,87.6,32.3 M87.6,31.7v-2.6c-0.7,0.4-1.2,0.8-1.5,1.2c-0.2,0.3-0.3,0.6-0.3,0.9
				c0,0.3,0.1,0.5,0.3,0.7c0.1,0.1,0.3,0.2,0.6,0.2C86.9,32.1,87.2,32,87.6,31.7"/>
			<path class="st17" d="M96.6,25.5l0.1,2.6h-0.3c-0.3-0.8-0.7-1.3-1-1.6c-0.4-0.3-0.7-0.4-1.1-0.4c-0.2,0-0.4,0.1-0.6,0.2
				c-0.2,0.2-0.2,0.3-0.2,0.5c0,0.1,0.1,0.3,0.2,0.4c0.2,0.2,0.7,0.6,1.5,1.2c0.8,0.5,1.3,1,1.6,1.4c0.3,0.4,0.4,0.8,0.4,1.3
				c0,0.4-0.1,0.8-0.3,1.3c-0.2,0.4-0.5,0.7-0.9,0.9c-0.4,0.2-0.8,0.3-1.3,0.3c-0.4,0-0.9-0.1-1.5-0.3c-0.2-0.1-0.3-0.1-0.3-0.1
				c-0.2,0-0.3,0.1-0.5,0.4h-0.3L92,30.9h0.3c0.2,0.7,0.6,1.3,1,1.6c0.4,0.4,0.8,0.5,1.2,0.5c0.3,0,0.5-0.1,0.6-0.2
				c0.2-0.2,0.3-0.4,0.3-0.6c0-0.3-0.1-0.5-0.2-0.7C95,31.3,94.6,31,94,30.6c-0.8-0.6-1.4-1-1.6-1.3c-0.4-0.4-0.5-0.9-0.5-1.5
				c0-0.6,0.2-1.1,0.6-1.6c0.4-0.5,1-0.7,1.8-0.7c0.4,0,0.8,0.1,1.2,0.3c0.1,0.1,0.3,0.1,0.4,0.1c0.1,0,0.2,0,0.2-0.1
				c0.1,0,0.2-0.2,0.3-0.3H96.6z"/>
			<path class="st17" d="M63.2,36.5l0.1,5.1h-0.5c-0.2-1.3-0.8-2.3-1.6-3.1c-0.9-0.8-1.8-1.2-2.8-1.2c-0.8,0-1.4,0.2-1.8,0.6
				c-0.4,0.4-0.7,0.9-0.7,1.4c0,0.3,0.1,0.6,0.2,0.9c0.2,0.4,0.6,0.7,1.1,1.1c0.4,0.3,1.2,0.7,2.5,1.3c1.8,0.9,3,1.7,3.6,2.5
				c0.6,0.8,0.9,1.7,0.9,2.7c0,1.3-0.5,2.4-1.5,3.3c-1,0.9-2.3,1.4-3.8,1.4c-0.5,0-0.9,0-1.4-0.1c-0.4-0.1-1-0.3-1.6-0.6
				c-0.4-0.1-0.7-0.2-0.9-0.2c-0.2,0-0.4,0.1-0.6,0.2c-0.2,0.2-0.4,0.4-0.5,0.7h-0.4v-5.8h0.4c0.3,1.6,1,2.9,1.9,3.7
				c1,0.9,2,1.3,3.1,1.3c0.8,0,1.5-0.2,2-0.7c0.5-0.5,0.8-1,0.8-1.6c0-0.4-0.1-0.7-0.3-1.1c-0.2-0.3-0.5-0.7-0.9-1
				c-0.4-0.3-1.1-0.7-2.1-1.2c-1.4-0.7-2.4-1.3-3-1.8c-0.6-0.5-1.1-1-1.4-1.6c-0.3-0.6-0.5-1.3-0.5-2c0-1.2,0.4-2.3,1.3-3.1
				c0.9-0.9,2-1.3,3.4-1.3c0.5,0,1,0.1,1.5,0.2c0.4,0.1,0.8,0.3,1.3,0.5c0.5,0.2,0.9,0.4,1.1,0.4c0.2,0,0.4-0.1,0.5-0.2
				c0.1-0.1,0.2-0.4,0.3-0.9H63.2z"/>
			<path class="st17" d="M74.9,47.8h-5.4l-0.6,1.5c-0.2,0.5-0.3,0.9-0.3,1.2c0,0.4,0.2,0.8,0.5,1c0.2,0.1,0.7,0.2,1.5,0.3v0.4h-5.1
				v-0.4c0.6-0.1,1-0.3,1.4-0.7c0.4-0.4,0.8-1.1,1.3-2.3l5.5-12.3h0.2l5.6,12.6c0.5,1.2,1,1.9,1.3,2.3c0.3,0.2,0.6,0.4,1.1,0.4v0.4
				h-7.5v-0.4h0.3c0.6,0,1-0.1,1.3-0.3c0.2-0.1,0.3-0.3,0.3-0.5c0-0.1,0-0.3-0.1-0.4c0-0.1-0.1-0.4-0.3-0.9L74.9,47.8z M74.5,47
				l-2.3-5.3L69.9,47H74.5z"/>
			<path class="st17" d="M87.8,36.8l7.6,9.6v-6.6c0-0.9-0.1-1.5-0.4-1.9c-0.4-0.4-1-0.7-1.8-0.6v-0.4h5.1v0.4
				c-0.6,0.1-1.1,0.2-1.3,0.3c-0.2,0.1-0.4,0.3-0.5,0.6c-0.1,0.3-0.2,0.8-0.2,1.5v12.8h-0.4L85.5,39.8v9.8c0,0.9,0.2,1.5,0.6,1.8
				c0.4,0.3,0.9,0.5,1.4,0.5h0.4v0.4h-5.5v-0.4c0.8,0,1.4-0.2,1.8-0.5c0.3-0.3,0.5-0.9,0.5-1.7V38.7l-0.3-0.4
				c-0.3-0.4-0.6-0.7-0.9-0.8c-0.2-0.1-0.6-0.2-1.1-0.2v-0.4H87.8z"/>
			<path class="st17" d="M115,44.1c1.5,0.3,2.5,0.8,3.1,1.2c0.8,0.7,1.3,1.6,1.3,2.7c0,1.2-0.5,2.1-1.4,2.9c-1.1,0.9-2.8,1.4-5,1.4
				h-7.8v-0.4c0.7,0,1.2-0.1,1.4-0.2c0.3-0.1,0.4-0.3,0.5-0.5c0.1-0.2,0.2-0.7,0.2-1.6v-10c0-0.8-0.1-1.4-0.2-1.6
				c-0.1-0.2-0.3-0.4-0.5-0.5c-0.3-0.1-0.7-0.2-1.4-0.2v-0.4h7.4c1.8,0,3,0.2,3.7,0.5c0.7,0.3,1.3,0.8,1.7,1.4
				c0.4,0.6,0.6,1.3,0.6,2c0,0.7-0.3,1.4-0.8,2C117.3,43.3,116.3,43.7,115,44.1 M110.9,44.6v4.9l0,0.6c0,0.4,0.1,0.7,0.3,0.9
				c0.2,0.2,0.5,0.3,0.9,0.3c0.6,0,1.2-0.1,1.7-0.4c0.5-0.3,0.9-0.7,1.2-1.2c0.3-0.5,0.4-1.1,0.4-1.7c0-0.7-0.2-1.4-0.5-1.9
				c-0.3-0.6-0.8-1-1.4-1.2C112.9,44.7,112,44.6,110.9,44.6 M110.9,43.8c1.1,0,1.9-0.1,2.4-0.4c0.5-0.2,0.9-0.6,1.2-1
				c0.3-0.4,0.4-1,0.4-1.7c0-0.7-0.1-1.2-0.4-1.7c-0.3-0.4-0.7-0.8-1.2-1c-0.5-0.2-1.3-0.3-2.4-0.3V43.8z"/>
			<path class="st17" d="M134.8,46.8l-0.6,5.4h-13.7v-0.4h0.5c0.4,0,0.8-0.1,1.1-0.2c0.2-0.1,0.3-0.3,0.5-0.5
				c0.1-0.2,0.1-0.7,0.1-1.4V39.5c0-0.8,0-1.3-0.1-1.5c-0.1-0.2-0.3-0.4-0.5-0.5c-0.3-0.1-0.6-0.2-1-0.2h-0.5v-0.4h8.2v0.4h-0.7
				c-0.4,0-0.8,0.1-1.1,0.2c-0.2,0.1-0.4,0.3-0.5,0.5c-0.1,0.2-0.1,0.7-0.1,1.4v9.8c0,0.8,0,1.3,0.1,1.5c0.1,0.2,0.3,0.4,0.5,0.5
				c0.2,0.1,0.6,0.1,1.4,0.1h1.3c0.8,0,1.5-0.1,2-0.4c0.5-0.3,1-0.7,1.4-1.4c0.4-0.6,0.8-1.5,1.1-2.8H134.8z"/>
			<path class="st17" d="M145.3,47.8h-5.4l-0.6,1.5c-0.2,0.5-0.3,0.9-0.3,1.2c0,0.4,0.2,0.8,0.5,1c0.2,0.1,0.7,0.2,1.5,0.3v0.4h-5.1
				v-0.4c0.6-0.1,1-0.3,1.4-0.7c0.4-0.4,0.8-1.1,1.3-2.3l5.5-12.3h0.2l5.6,12.6c0.5,1.2,1,1.9,1.3,2.3c0.3,0.2,0.6,0.4,1.1,0.4v0.4
				h-7.4v-0.4h0.3c0.6,0,1-0.1,1.3-0.3c0.2-0.1,0.2-0.3,0.2-0.5c0-0.1,0-0.3-0.1-0.4c0-0.1-0.1-0.4-0.3-0.9L145.3,47.8z M144.9,47
				l-2.3-5.3l-2.4,5.3H144.9z"/>
			<path class="st17" d="M163.4,36.5l0.1,5.1H163c-0.2-1.3-0.8-2.3-1.6-3.1c-0.9-0.8-1.8-1.2-2.8-1.2c-0.8,0-1.4,0.2-1.8,0.6
				c-0.5,0.4-0.7,0.9-0.7,1.4c0,0.3,0.1,0.6,0.2,0.9c0.2,0.4,0.6,0.7,1.1,1.1c0.4,0.3,1.2,0.7,2.5,1.3c1.8,0.9,3,1.7,3.6,2.5
				c0.6,0.8,0.9,1.7,0.9,2.7c0,1.3-0.5,2.4-1.5,3.3c-1,0.9-2.3,1.4-3.8,1.4c-0.5,0-0.9,0-1.4-0.1c-0.4-0.1-1-0.3-1.6-0.6
				c-0.4-0.1-0.7-0.2-0.9-0.2c-0.2,0-0.4,0.1-0.6,0.2c-0.2,0.2-0.4,0.4-0.5,0.7h-0.4v-5.8h0.4c0.3,1.6,1,2.9,1.9,3.7
				c1,0.9,2,1.3,3.1,1.3c0.8,0,1.5-0.2,2-0.7c0.5-0.5,0.8-1,0.8-1.6c0-0.4-0.1-0.7-0.3-1.1c-0.2-0.3-0.5-0.7-0.9-1
				c-0.4-0.3-1.1-0.7-2.1-1.2c-1.4-0.7-2.4-1.3-3-1.8c-0.6-0.5-1.1-1-1.4-1.6c-0.3-0.6-0.5-1.3-0.5-2c0-1.2,0.4-2.3,1.3-3.1
				c0.9-0.9,2-1.3,3.4-1.3c0.5,0,1,0.1,1.5,0.2c0.4,0.1,0.8,0.3,1.3,0.5c0.5,0.2,0.9,0.4,1.1,0.4c0.2,0,0.4-0.1,0.5-0.2
				c0.1-0.1,0.2-0.4,0.3-0.9H163.4z"/>
		</g>
	</g>
</g>
</svg>
